<?xml version="1.0" standalone="yes"?>
<!DOCTYPE svg PUBLIC "-//W3C//DTD SVG 1.1//EN"
 "http://www.w3.org/Graphics/SVG/1.1/DTD/svg11.dtd">
<svg xmlns="http://www.w3.org/2000/svg" version="1.1"
  width="100%" height="100%" viewBox="0 0 1024 768"
  style="fill: none; font-family: Helvetica;
 font: Helvetica;
">

<!-- Creator: NGspice -->

<rect x="0" y="0" width="1024" height="768" fill="white" stroke="none"/>
<text stroke="none" fill="black" font-size="16" x="358" y="752">
time
</text>
<text stroke="none" fill="black" font-size="16" x="10" y="16">
tran1: Ejemplo de una conversion
</text>
<path stroke="black" d="M50 704l0 -640"/>
<text stroke="none" fill="black" font-size="16" x="35" y="728">
0.0
</text>
<path stroke="black" stroke-dasharray="1,2" d="M142 704l0 -640"/>
<text stroke="none" fill="black" font-size="16" x="127" y="728">
2.0
</text>
<path stroke="black" stroke-dasharray="1,2" d="M234 704l0 -640"/>
<text stroke="none" fill="black" font-size="16" x="219" y="728">
4.0
</text>
<path stroke="black" stroke-dasharray="1,2" d="M326 704l0 -640"/>
<text stroke="none" fill="black" font-size="16" x="311" y="728">
6.0
</text>
<path stroke="black" stroke-dasharray="1,2" d="M418 704l0 -640"/>
<text stroke="none" fill="black" font-size="16" x="403" y="728">
8.0
</text>
<path stroke="black" stroke-dasharray="1,2" d="M510 704l0 -640"/>
<text stroke="none" fill="black" font-size="16" x="490" y="728">
10.0
</text>
<path stroke="black" stroke-dasharray="1,2" d="M602 704l0 -640"/>
<text stroke="none" fill="black" font-size="16" x="582" y="728">
12.0
</text>
<path stroke="black" stroke-dasharray="1,2" d="M694 704l0 -640"/>
<text stroke="none" fill="black" font-size="16" x="674" y="728">
14.0
</text>
<path stroke="black" stroke-dasharray="1,2" d="M786 704l0 -640"/>
<text stroke="none" fill="black" font-size="16" x="766" y="728">
16.0
</text>
<path stroke="black" stroke-dasharray="1,2" d="M878 704l0 -640"/>
<text stroke="none" fill="black" font-size="16" x="858" y="728">
18.0
</text>
<path stroke="black" stroke-dasharray="1,2" d="M970 704l0 -640"/>
<text stroke="none" fill="black" font-size="16" x="950" y="728">
20.0
</text>
<text stroke="none" fill="black" font-size="16" x="614" y="752">
ns
</text>
<path stroke="black" stroke-dasharray="1,2" d="M50 704l920 0"/>
<text stroke="none" fill="black" font-size="16" x="8" y="712">
-2.0
</text>
<path stroke="black" stroke-dasharray="1,2" d="M50 624l920 0"/>
<text stroke="none" fill="black" font-size="16" x="8" y="632">
-1.5
</text>
<path stroke="black" stroke-dasharray="1,2" d="M50 544l920 0"/>
<text stroke="none" fill="black" font-size="16" x="8" y="552">
-1.0
</text>
<path stroke="black" stroke-dasharray="1,2" d="M50 464l920 0"/>
<text stroke="none" fill="black" font-size="16" x="8" y="472">
-0.5
</text>
<path stroke="black" d="M50 384l920 0"/>
<text stroke="none" fill="black" font-size="16" x="18" y="392">
0.0
</text>
<path stroke="black" stroke-dasharray="1,2" d="M50 304l920 0"/>
<text stroke="none" fill="black" font-size="16" x="18" y="312">
0.5
</text>
<path stroke="black" stroke-dasharray="1,2" d="M50 224l920 0"/>
<text stroke="none" fill="black" font-size="16" x="18" y="232">
1.0
</text>
<path stroke="black" stroke-dasharray="1,2" d="M50 144l920 0"/>
<text stroke="none" fill="black" font-size="16" x="18" y="152">
1.5
</text>
<path stroke="black" stroke-dasharray="1,2" d="M50 64l920 0"/>
<text stroke="none" fill="black" font-size="16" x="18" y="72">
2.0
</text>
<text stroke="none" fill="black" font-size="16" x="10" y="32">
     
</text>
<path stroke="red" d="M460 23l46 0"/>
<text stroke="none" fill="black" font-size="16" x="516" y="32">
resultado
</text>
<path stroke="red" d="M50 672l5 0 0 -58 1 -18 0 -72 1 -16 0 -39 1 -10 0 -21 1 -5 0 -12M59 431l1 9M60 462l0 -22M60 462l1 -1 0 -44 1 -28 0 -95 1 -28M63 271l0 -32M63 271l1 37M64 452l0 -144M64 452l1 46M65 602l0 -104M65 602l1 25M66 670l0 -43M66 670l1 1"/>
<path stroke="red" d="M67 672l0 -1M67 672l114 0M181 673l0 -1M181 673l1 1M182 678l0 -4M182 678l1 -5 0 -137 1 -62 0 -166 1 -39 0 -85 1 -27 0 -53 1 -4 0 -4 1 -1M188 96l0 -1M188 96l1 2M189 104l0 -6M189 104l1 2M190 109l0 -3M190 109l1 1 0 -3 1 -2 0 -5"/>
<path stroke="red" d="M192 100l1 -1 0 -2 1 0 0 -1 40 0 0 -5 1 0M235 144l0 -53M235 144l1 27M236 258l0 -87M236 258l1 27M237 343l0 -58M237 343l1 13M238 382l0 -26M238 382l1 1M239 385l0 -2M239 385l1 1 0 -2 38 0M278 385l0 -1M278 385l1 0M279 386l0 -3"/>
<path stroke="red" d="M279 383l1 -5 0 -36 1 -16 0 -47 1 -7 0 -19 1 -5 0 -6 1 -1 0 -1 1 0 1 1M286 242l0 -1M286 242l1 0M287 243l0 -1M287 243l1 1 0 -1 1 0 0 -2 1 0 0 -1 47 0M337 241l0 -1M337 241l1 0 1 1 1 0 0 -1 1 0 0 -1 44 0 0 -1M385 240l1 1M386 250l0 -9"/>
<path stroke="red" d="M386 250l1 4M387 264l0 -10M387 264l1 3M388 274l0 -7M388 274l1 1M389 276l0 -1M389 276l50 0 1 -1 0 -5 1 -2 0 -5 1 -1 0 -3 1 0 0 -1 4 0M447 259l0 -1M447 259l1 0 0 -1 48 0M496 260l0 -2M496 260l1 1M497 264l0 -3M497 264l1 1M498 266l0 -1"/>
<path stroke="red" d="M498 266l1 1 165 0 1 -1 305 0"/>
<path stroke="blue" d="M50 23l46 0"/>
<text stroke="none" fill="black" font-size="16" x="106" y="32">
sample
</text>
<path stroke="blue" d="M50 384l5 0 0 -288 92 0M147 384l0 -288M147 384l823 0"/>
<path stroke="#FFA500" d="M460 39l46 0"/>
<text stroke="none" fill="black" font-size="16" x="516" y="48">
eoc
</text>
<path stroke="#FFA500" d="M50 384l5 0 0 -29 1 -9 0 -35 1 -7 0 -5M57 300l1 2M58 305l0 -3M58 303l1 -4 0 -75 1 -31 0 -87 1 -2M61 181l0 -77M61 181l1 74M62 381l0 -126M62 381l1 1M63 384l0 -2M63 384l721 0M784 389l0 -5M784 389l1 -7 0 -172 1 -69 0 -41"/>
<path stroke="#FFA500" d="M786 100l1 -2 0 -2 183 0"/>
<path stroke="green" d="M50 39l46 0"/>
<text stroke="none" fill="black" font-size="16" x="106" y="48">
vin
</text>
<path stroke="green" d="M50 304l5 0 0 -6 1 -2 0 -7 1 -2 0 -6 1 -2 0 -5 1 -2 0 -6 911 0"/>
</svg>
