<?xml version="1.0" standalone="yes"?>
<!DOCTYPE svg PUBLIC "-//W3C//DTD SVG 1.1//EN"
 "http://www.w3.org/Graphics/SVG/1.1/DTD/svg11.dtd">
<svg xmlns="http://www.w3.org/2000/svg" version="1.1"
  width="100%" height="100%" viewBox="0 0 1024 768"
  style="fill: none; font-family: Helvetica;
 font: Helvetica;
">

<!-- Creator: NGspice -->

<rect x="0" y="0" width="1024" height="768" fill="white" stroke="none"/>
<text stroke="none" fill="black" font-size="16" x="358" y="752">
time
</text>
<text stroke="none" fill="black" font-size="16" x="10" y="16">
tran1: Pulso de subida
</text>
<path stroke="black" stroke-dasharray="1,2" d="M50 704l0 -639"/>
<text stroke="none" fill="black" font-size="16" x="30" y="728">
1.00
</text>
<path stroke="black" stroke-dasharray="1,2" d="M142 704l0 -639"/>
<text stroke="none" fill="black" font-size="16" x="122" y="728">
1.01
</text>
<path stroke="black" stroke-dasharray="1,2" d="M234 704l0 -639"/>
<text stroke="none" fill="black" font-size="16" x="214" y="728">
1.02
</text>
<path stroke="black" stroke-dasharray="1,2" d="M326 704l0 -639"/>
<text stroke="none" fill="black" font-size="16" x="306" y="728">
1.03
</text>
<path stroke="black" stroke-dasharray="1,2" d="M418 704l0 -639"/>
<text stroke="none" fill="black" font-size="16" x="398" y="728">
1.04
</text>
<path stroke="black" stroke-dasharray="1,2" d="M510 704l0 -639"/>
<text stroke="none" fill="black" font-size="16" x="490" y="728">
1.05
</text>
<path stroke="black" stroke-dasharray="1,2" d="M602 704l0 -639"/>
<text stroke="none" fill="black" font-size="16" x="582" y="728">
1.06
</text>
<path stroke="black" stroke-dasharray="1,2" d="M694 704l0 -639"/>
<text stroke="none" fill="black" font-size="16" x="674" y="728">
1.07
</text>
<path stroke="black" stroke-dasharray="1,2" d="M786 704l0 -639"/>
<text stroke="none" fill="black" font-size="16" x="766" y="728">
1.08
</text>
<path stroke="black" stroke-dasharray="1,2" d="M878 704l0 -639"/>
<text stroke="none" fill="black" font-size="16" x="858" y="728">
1.09
</text>
<path stroke="black" stroke-dasharray="1,2" d="M970 704l0 -639"/>
<text stroke="none" fill="black" font-size="16" x="950" y="728">
1.10
</text>
<text stroke="none" fill="black" font-size="16" x="614" y="752">
ns
</text>
<path stroke="black" d="M50 704l920 0"/>
<text stroke="none" fill="black" font-size="16" x="18" y="712">
0.0
</text>
<path stroke="black" stroke-dasharray="1,2" d="M50 633l920 0"/>
<text stroke="none" fill="black" font-size="16" x="18" y="641">
0.2
</text>
<path stroke="black" stroke-dasharray="1,2" d="M50 562l920 0"/>
<text stroke="none" fill="black" font-size="16" x="18" y="570">
0.4
</text>
<path stroke="black" stroke-dasharray="1,2" d="M50 491l920 0"/>
<text stroke="none" fill="black" font-size="16" x="18" y="499">
0.6
</text>
<path stroke="black" stroke-dasharray="1,2" d="M50 420l920 0"/>
<text stroke="none" fill="black" font-size="16" x="18" y="428">
0.8
</text>
<path stroke="black" stroke-dasharray="1,2" d="M50 349l920 0"/>
<text stroke="none" fill="black" font-size="16" x="18" y="357">
1.0
</text>
<path stroke="black" stroke-dasharray="1,2" d="M50 278l920 0"/>
<text stroke="none" fill="black" font-size="16" x="18" y="286">
1.2
</text>
<path stroke="black" stroke-dasharray="1,2" d="M50 207l920 0"/>
<text stroke="none" fill="black" font-size="16" x="18" y="215">
1.4
</text>
<path stroke="black" stroke-dasharray="1,2" d="M50 136l920 0"/>
<text stroke="none" fill="black" font-size="16" x="18" y="144">
1.6
</text>
<path stroke="black" stroke-dasharray="1,2" d="M50 65l920 0"/>
<text stroke="none" fill="black" font-size="16" x="18" y="73">
1.8
</text>
<text stroke="none" fill="black" font-size="16" x="10" y="32">
V
</text>
<path stroke="red" d="M460 23l46 0"/>
<text stroke="none" fill="black" font-size="16" x="516" y="32">
vin1
</text>
<path stroke="red" d="M50 384l0 -14 1 -20 1 -38 2 -74 3 -103 2 -70 911 0"/>
<path stroke="blue" d="M50 23l46 0"/>
<text stroke="none" fill="black" font-size="16" x="106" y="32">
vin2
</text>
<path stroke="blue" d="M50 399l0 -15M50 399l1 20 1 38 2 74 3 103 2 70 911 0"/>
<path stroke="#FFA500" d="M460 39l46 0"/>
<text stroke="none" fill="black" font-size="16" x="516" y="48">
vin3
</text>
<path stroke="#FFA500" d="M50 384l0 -7 1 -10 1 -19 2 -37 3 -51 2 -35 911 0"/>
<path stroke="green" d="M50 39l46 0"/>
<text stroke="none" fill="black" font-size="16" x="106" y="48">
vin4
</text>
<path stroke="green" d="M50 392l0 -8M50 392l1 10 1 19 2 37 3 51 2 35 911 0"/>
<path stroke="#FFC0C5" d="M460 55l46 0"/>
<text stroke="none" fill="black" font-size="16" x="516" y="64">
v_top1
</text>
<path stroke="#FFC0C5" d="M50 385l0 -2 1 0 1 -1 2 -1 3 -4 2 -4 1 -1 0 -1 1 -2 1 -3 2 -8 3 -10 4 -11 5 -17 10 -23 9 -21 9 -19 9 -16 9 -15 10 -14 9 -12 2 -2 2 -3 3 -4 26 -26 9 -7 10 -7 18 -12 18 -10 10 -4 27 -12 9 -3 10 -3 9 -3 9 -2 9 -3 9 -2 10 -2"/>
<path stroke="#FFC0C5" d="M331 95l36 -8 10 -1 9 -1 9 -2 18 -2 10 -1 36 -4 10 -1 9 0 18 -2 9 0 10 -1 9 0 9 -1 9 0 9 -1 19 0 9 -1 18 0 10 -1 36 0 10 -1 55 0 9 -1 120 0 9 -1 124 0"/>
<path stroke="#A52A2A" d="M50 55l46 0"/>
<text stroke="none" fill="black" font-size="16" x="106" y="64">
v_top2
</text>
<path stroke="#A52A2A" d="M50 386l0 -1M50 386l1 0 1 2 2 3 3 7 2 9 1 1M60 410l0 -2M60 410l1 2 3 21 3 19 4 22 5 34 10 45 9 36 9 28 9 20 9 15 10 10 9 8 1 1 1 0 2 1 3 3 8 3 18 8 9 2 10 2 18 4 18 2 10 1 18 2 9 0 9 1 10 1 18 0 9 1 28 0 9 1 74 0 9 1"/>
<path stroke="#A52A2A" d="M432 704l538 0"/>
<path stroke="#F0E68C" d="M460 71l46 0"/>
<text stroke="none" fill="black" font-size="16" x="516" y="80">
v_top3
</text>
<path stroke="#F0E68C" d="M50 385l0 -1 1 0 1 -1 2 0 5 -5 1 0 1 -1 3 -6 3 -5 4 -5 5 -8 10 -11 9 -10 9 -8 9 -7 9 -6 10 -6 9 -5 1 -1 1 0 2 -1 3 -2 8 -3 18 -8 9 -3 10 -4 9 -3 9 -2 18 -6 10 -2 36 -8 10 -2 9 -2 9 -1 9 -2 9 -1 10 -1 9 -2 27 -3 10 -1"/>
<path stroke="#F0E68C" d="M377 242l36 -4 10 0 18 -2 9 0 9 -1 10 -1 9 0 9 -1 9 0 9 -1 19 0 9 -1 9 0 9 -1 28 0 9 -1 28 0 9 -1 37 0 9 -1 55 0 9 -1 129 0 9 -1 97 0"/>
<path stroke="#DDA0DD" d="M50 71l46 0"/>
<text stroke="none" fill="black" font-size="16" x="106" y="80">
v_top4
</text>
<path stroke="#DDA0DD" d="M50 385l1 0 1 1 2 1 3 4 2 5 1 0M60 397l0 -1M60 397l1 1 1 3 2 7 3 8 4 10 5 15 10 20 9 15 9 13 9 10 9 8 10 6 9 5 1 0 1 1 2 1 3 1 8 3 9 3 18 4 10 2 36 4 10 1 9 1 9 0 9 1 9 0 10 1 9 0 9 1 28 0 9 1 55 0 9 1 566 0"/>
</svg>
