<?xml version="1.0" standalone="yes"?>
<!DOCTYPE svg PUBLIC "-//W3C//DTD SVG 1.1//EN"
 "http://www.w3.org/Graphics/SVG/1.1/DTD/svg11.dtd">
<svg xmlns="http://www.w3.org/2000/svg" version="1.1"
  width="100%" height="100%" viewBox="0 0 1024 768"
  style="fill: none; font-family: Helvetica;
 font: Helvetica;
">

<!-- Creator: NGspice -->

<rect x="0" y="0" width="1024" height="768" fill="white" stroke="none"/>
<text stroke="none" fill="black" font-size="16" x="358" y="752">
time
</text>
<text stroke="none" fill="black" font-size="16" x="10" y="16">
tran1: Retardo Salidas
</text>
<path stroke="black" d="M50 704l0 -637"/>
<text stroke="none" fill="black" font-size="16" x="35" y="728">
0.0
</text>
<path stroke="black" stroke-dasharray="1,2" d="M142 704l0 -637"/>
<text stroke="none" fill="black" font-size="16" x="127" y="728">
1.0
</text>
<path stroke="black" stroke-dasharray="1,2" d="M234 704l0 -637"/>
<text stroke="none" fill="black" font-size="16" x="219" y="728">
2.0
</text>
<path stroke="black" stroke-dasharray="1,2" d="M326 704l0 -637"/>
<text stroke="none" fill="black" font-size="16" x="311" y="728">
3.0
</text>
<path stroke="black" stroke-dasharray="1,2" d="M418 704l0 -637"/>
<text stroke="none" fill="black" font-size="16" x="403" y="728">
4.0
</text>
<path stroke="black" stroke-dasharray="1,2" d="M510 704l0 -637"/>
<text stroke="none" fill="black" font-size="16" x="495" y="728">
5.0
</text>
<path stroke="black" stroke-dasharray="1,2" d="M602 704l0 -637"/>
<text stroke="none" fill="black" font-size="16" x="587" y="728">
6.0
</text>
<path stroke="black" stroke-dasharray="1,2" d="M694 704l0 -637"/>
<text stroke="none" fill="black" font-size="16" x="679" y="728">
7.0
</text>
<path stroke="black" stroke-dasharray="1,2" d="M786 704l0 -637"/>
<text stroke="none" fill="black" font-size="16" x="771" y="728">
8.0
</text>
<path stroke="black" stroke-dasharray="1,2" d="M878 704l0 -637"/>
<text stroke="none" fill="black" font-size="16" x="863" y="728">
9.0
</text>
<path stroke="black" stroke-dasharray="1,2" d="M970 704l0 -637"/>
<text stroke="none" fill="black" font-size="16" x="950" y="728">
10.0
</text>
<text stroke="none" fill="black" font-size="16" x="614" y="752">
ns
</text>
<path stroke="black" stroke-dasharray="1,2" d="M50 704l920 0"/>
<text stroke="none" fill="black" font-size="16" x="8" y="712">
-1.0
</text>
<path stroke="black" d="M50 613l920 0"/>
<text stroke="none" fill="black" font-size="16" x="18" y="621">
0.0
</text>
<path stroke="black" stroke-dasharray="1,2" d="M50 522l920 0"/>
<text stroke="none" fill="black" font-size="16" x="18" y="530">
1.0
</text>
<path stroke="black" stroke-dasharray="1,2" d="M50 431l920 0"/>
<text stroke="none" fill="black" font-size="16" x="18" y="439">
2.0
</text>
<path stroke="black" stroke-dasharray="1,2" d="M50 340l920 0"/>
<text stroke="none" fill="black" font-size="16" x="18" y="348">
3.0
</text>
<path stroke="black" stroke-dasharray="1,2" d="M50 249l920 0"/>
<text stroke="none" fill="black" font-size="16" x="18" y="257">
4.0
</text>
<path stroke="black" stroke-dasharray="1,2" d="M50 158l920 0"/>
<text stroke="none" fill="black" font-size="16" x="18" y="166">
5.0
</text>
<path stroke="black" stroke-dasharray="1,2" d="M50 67l920 0"/>
<text stroke="none" fill="black" font-size="16" x="18" y="75">
6.0
</text>
<text stroke="none" fill="black" font-size="16" x="10" y="32">
     
</text>
<path stroke="red" d="M460 23l46 0"/>
<text stroke="none" fill="black" font-size="16" x="516" y="32">
outp_bindra
</text>
<path stroke="red" d="M50 600l11 0 0 -1 1 0 0 -2 1 0 0 -1 1 1M64 606l0 -9M64 606l1 1M65 611l0 -4M65 611l1 0M66 612l0 -1M66 612l1 0M67 613l0 -1M67 613l179 0M246 614l0 -1M246 614l2 0M248 615l0 -1M248 615l2 0M250 617l0 -2M250 617l1 0M251 620l0 -3"/>
<path stroke="red" d="M251 620l1 0M252 622l0 -2M252 622l1 0M253 623l0 -1M253 623l3 0 0 -2 1 0 0 -1 1 -1 0 -2 1 -1 0 -3 1 0 0 -5 1 0 0 -5 1 -1 0 -6 1 0 0 -7 1 0 0 -7 1 -1 0 -6 1 -1 0 -7 1 -1 0 -6 1 -1 0 -5 1 0 0 -3 1 0 0 -3 1 0 0 -1 1 0 0 -2 1 0"/>
<path stroke="red" d="M273 545l0 -1 1 0 0 -1 1 -1 0 -1 1 -1 0 -2 1 0 0 -4 1 0 0 -5 1 0 0 -6 1 -1 0 -6 1 -1 0 -7 1 -1 0 -8 1 -1 0 -11 1 -1 0 -10 1 -1 0 -8 1 -1 0 -6 1 0 0 -4 1 -1 0 -2 1 0 0 -1 1 0 0 -1 1 0 0 -1 11 0 0 -1 1 0 0 -1 1 -1 0 -1 1 -1"/>
<path stroke="red" d="M305 447l0 -2M305 447l1 1M306 467l0 -19M306 467l1 3M307 517l0 -47M307 517l1 6M308 576l0 -53M308 576l1 5M309 607l0 -26M309 607l1 1M310 612l0 -4M310 612l2 0M312 613l0 -1M312 613l54 0M366 614l0 -1M366 614l2 0M368 615l0 -1M368 615l1 0"/>
<path stroke="red" d="M369 616l0 -1M369 616l1 0M370 619l0 -3M370 619l1 0M371 622l0 -3M371 622l1 0M372 623l0 -1M372 623l3 0 0 -1 1 0 0 -1 1 -1 0 -2 1 0 0 -3 1 -1 0 -3 1 -1 0 -4 1 -1 0 -5 1 -1 0 -6 1 0 0 -7 1 -1 0 -7 1 0 0 -8 1 0 0 -7 1 -1 0 -5"/>
<path stroke="red" d="M387 557l1 0 0 -4 1 0 0 -3 1 0 0 -2 1 0 0 -2 1 0 0 -1 1 0 0 -2 1 0 0 -1 1 0 0 -2 1 0 0 -3 1 0 0 -4 1 -1 0 -5 1 -1 0 -6 1 -1 0 -6 1 -1 0 -8 1 -1 0 -9 1 -1 0 -9 1 -1 0 -10 1 -1 0 -8 1 0 0 -5 1 -1 0 -3 1 -1 0 -2 1 0 0 -1 1 0"/>
<path stroke="red" d="M410 451l1 -1 11 0 0 -1 1 0 0 -2 1 0 0 -2 1 0M425 449l0 -4M425 449l1 1M426 476l0 -26M426 476l1 4M427 531l0 -51M427 531l1 6M428 588l0 -51M428 588l1 3M429 608l0 -17M429 608l1 1M430 612l0 -3M430 612l2 0M432 613l0 -1M432 613l52 0"/>
<path stroke="red" d="M484 614l0 -1M484 614l2 0M486 615l0 -1M486 615l1 0M487 617l0 -2M487 617l1 0M488 620l0 -3M488 620l1 0M489 622l0 -2M489 622l1 0M490 623l0 -1M490 623l3 0 0 -1 1 0 0 -2 1 0 0 -2 1 0 0 -4 1 0 0 -4 1 0 0 -5 1 0 0 -5 1 -1 0 -6"/>
<path stroke="red" d="M500 593l1 -1 0 -6 1 -1 0 -7 1 -1 0 -7 1 -1 0 -6 1 -1 0 -5 1 0 0 -4 1 0 0 -3 1 0 0 -1 1 0 0 -1 1 0 0 -1 2 0M512 548l0 -1M512 548l1 0M513 549l0 -1M513 549l1 0M514 551l0 -2M514 551l1 1M515 556l0 -4M515 556l1 0M516 563l0 -7"/>
<path stroke="red" d="M516 563l1 1M517 576l0 -12M517 576l1 1M518 592l0 -15M518 592l1 1M519 604l0 -11M519 604l1 1M520 609l0 -4M520 609l1 0M521 610l0 -1M521 610l1 1 1 0M523 612l0 -1M523 612l3 0M526 613l0 -1M526 613l15 0 0 -1 3 0M544 613l0 -1M544 613l1 0"/>
<path stroke="red" d="M545 615l0 -2M545 615l2 0 0 -2 55 0M602 614l0 -1M602 614l2 0M604 615l0 -1M604 615l1 0M605 616l0 -1M605 616l1 1M606 619l0 -2M606 619l1 1M607 622l0 -2M607 622l1 0M608 623l0 -1M608 623l3 0 0 -1 1 0 0 -1 1 -1 0 -2 1 0 0 -3 1 -1"/>
<path stroke="red" d="M615 614l0 -4 1 0 0 -5 1 0 0 -5 1 -1 0 -6 1 0 0 -7 1 -1 0 -7 1 0 0 -8 1 0 0 -7 1 -1 0 -5 1 -1 0 -3 1 -1 0 -2 1 0 0 -2 1 0 0 -2 1 0 0 -1 1 0 0 -1 1 0 0 -2 1 0 0 -2 1 0 0 -3 1 0 0 -3 1 0 0 -5 1 -1 0 -6 1 -1 0 -6 1 -1 0 -7"/>
<path stroke="red" d="M637 507l1 -1 0 -9 1 -1 0 -11 1 -1 0 -9 1 -1 0 -8 1 0 0 -6 1 -1 0 -4 1 0 0 -2 1 0 0 -2 2 0 0 -1 11 0 0 -1 1 0 0 -1 1 -1 0 -1 1 0M661 447l0 -2M661 447l1 0M662 465l0 -18M662 465l1 3M663 509l0 -41M663 509l1 5M664 568l0 -54"/>
<path stroke="red" d="M664 568l1 5M665 605l0 -32M665 605l1 2M666 611l0 -4M666 611l1 1 1 0M668 613l0 -1M668 613l52 0M720 614l0 -1M720 614l2 0M722 615l0 -1M722 615l1 0M723 616l0 -1M723 616l1 0M724 618l0 -2M724 618l1 1M725 621l0 -2M725 621l1 0M726 623l0 -2"/>
<path stroke="red" d="M726 623l3 0 0 -1 1 0 0 -1 1 0 0 -2 1 -1 0 -2 1 0 0 -4 1 0 0 -5 1 0 0 -6 1 0 0 -6 1 -1 0 -6 1 -1 0 -7 1 -1 0 -7 1 0 0 -7 1 0 0 -6 1 -1 0 -4 1 -1 0 -3 1 0 0 -2 1 0 0 -1 1 -1 0 -1 1 0 0 -1 1 0 0 -2 1 0 0 -2 1 0 0 -2 1 -1 0 -3"/>
<path stroke="red" d="M751 534l1 -1 0 -4 1 -1 0 -6 1 -1 0 -6 1 -1 0 -7 1 0 0 -9 1 -1 0 -10 1 -1 0 -10 1 -1 0 -9 1 0 0 -6 1 -1 0 -3 1 -1 0 -2 1 0 0 -1 1 -1 1 0 0 -1 11 0 0 -1 1 0 0 -1 1 -1 0 -1 1 0M779 447l0 -2M779 447l1 0M780 464l0 -17M780 464l1 3"/>
<path stroke="red" d="M781 513l0 -46M781 513l1 5M782 572l0 -54M782 572l1 5M783 606l0 -29M783 606l1 1M784 612l0 -5M784 612l2 0M786 613l0 -1M786 613l52 0M838 614l0 -1M838 614l2 0M840 615l0 -1M840 615l1 0M841 616l0 -1M841 616l1 0M842 619l0 -3M842 619l1 0"/>
<path stroke="red" d="M843 621l0 -2M843 621l1 0M844 623l0 -2M844 623l3 0 0 -1 1 0 0 -1 1 0 0 -2 1 -1 0 -2 1 -1 0 -3 1 -1 0 -4 1 -1 0 -5 1 0 0 -6 1 -1 0 -6 1 -1 0 -7 1 -1 0 -7 1 -1 0 -6 1 -1 0 -5 1 -1 0 -4 1 0 0 -3 1 0 0 -2 1 0 0 -1 1 0 0 -1 3 0"/>
<path stroke="red" d="M867 548l0 -1M867 548l1 1M868 550l0 -1M868 550l1 1M869 554l0 -3M869 554l1 1M870 561l0 -6M870 561l1 1M871 572l0 -10M871 572l1 2M872 588l0 -14M872 588l1 1M873 601l0 -12M873 601l1 1M874 608l0 -6M874 608l1 0M875 610l0 -2M875 610l1 0"/>
<path stroke="red" d="M876 611l0 -1M876 611l1 0M877 612l0 -1M877 612l3 0M880 613l0 -1M880 613l15 0 0 -1 3 0M898 613l0 -1M898 613l1 0M899 614l0 -1M899 614l1 0M900 615l0 -1M900 615l1 0 0 -1 1 0 0 -1 54 0M956 614l0 -1M956 614l2 0M958 615l0 -1M958 615l1 0"/>
<path stroke="red" d="M959 616l0 -1M959 616l1 0M960 618l0 -2M960 618l1 1M961 621l0 -2M961 621l1 0M962 623l0 -2M962 623l3 0 1 -1 0 -1 1 0 0 -2 1 0 0 -3 1 -1 0 -3 1 -1 0 -2"/>
<path stroke="blue" d="M50 23l46 0"/>
<text stroke="none" fill="black" font-size="16" x="106" y="32">
outn_bindra+2
</text>
<path stroke="blue" d="M50 418l11 0 0 -1 1 0 0 -2 1 0 0 -1 1 1M64 424l0 -9M64 424l1 1M65 429l0 -4M65 429l1 0M66 430l0 -1M66 430l1 0M67 431l0 -1M67 431l179 0M246 432l0 -1M246 432l2 0M248 433l0 -1M248 433l2 0M250 435l0 -2M250 435l1 0M251 438l0 -3"/>
<path stroke="blue" d="M251 438l1 0M252 440l0 -2M252 440l1 0M253 441l0 -1M253 441l3 0 0 -1 1 -1 0 -1 1 -1 0 -2 1 0 0 -4 1 0 0 -5 1 0 0 -5 1 -1 0 -5 1 -1 0 -6 1 -1 0 -7 1 -1 0 -6 1 -1 0 -7 1 -1 0 -6 1 -1 0 -4 1 -1 0 -3 1 0 0 -2 1 0 0 -1 1 0 0 -1"/>
<path stroke="blue" d="M272 365l3 0M275 366l0 -1M275 366l1 0M276 368l0 -2M276 368l1 0M277 371l0 -3M277 371l1 1M278 377l0 -5M278 377l1 1M279 388l0 -10M279 388l1 1M280 401l0 -12M280 401l1 2M281 417l0 -14M281 417l1 1M282 425l0 -7M282 425l1 0M283 428l0 -3"/>
<path stroke="blue" d="M283 428l1 0M284 429l0 -1M284 429l1 0M285 430l0 -1M285 430l3 0 1 1 14 0 0 -1 3 0M306 431l0 -1M306 431l1 0M307 432l0 -1M307 432l1 1 1 0 0 -2 57 0M366 432l0 -1M366 432l2 0M368 433l0 -1M368 433l1 0M369 434l0 -1M369 434l1 0"/>
<path stroke="blue" d="M370 437l0 -3M370 437l1 0M371 440l0 -3M371 440l1 0M372 441l0 -1M372 441l3 0 0 -1 1 0 0 -1 1 -1 0 -2 1 0 0 -3 1 -1 0 -3 1 -1 0 -4 1 -1 0 -5 1 0 0 -6 1 -1 0 -7 1 0 0 -7 1 -1 0 -7 1 -1 0 -7 1 0 0 -5 1 -1 0 -4 1 0 0 -2 1 -1"/>
<path stroke="blue" d="M390 368l0 -1 1 0 0 -1 1 0 0 -1 2 0M394 366l0 -1M394 366l1 0M395 367l0 -1M395 367l1 0M396 369l0 -2M396 369l1 0M397 373l0 -4M397 373l1 1M398 381l0 -7M398 381l1 1M399 393l0 -11M399 393l1 1M400 409l0 -15M400 409l1 1M401 421l0 -11"/>
<path stroke="blue" d="M401 421l1 1M402 427l0 -5M402 427l1 0M403 428l0 -1M403 428l1 1 1 0M405 430l0 -1M405 430l3 0M408 431l0 -1M408 431l15 0 0 -1 3 0M426 431l0 -1M426 431l1 1M427 433l0 -1M427 433l2 0 0 -2 55 0M484 432l0 -1M484 432l2 0M486 433l0 -1"/>
<path stroke="blue" d="M486 433l1 0M487 435l0 -2M487 435l1 0M488 438l0 -3M488 438l1 0M489 440l0 -2M489 440l1 0M490 441l0 -1M490 441l3 0 0 -1 1 0 0 -2 1 0 0 -2 1 0 0 -4 1 0 0 -4 1 0 0 -5 1 0 0 -6 1 0 0 -6 1 -1 0 -7 1 0 0 -7 1 -1 0 -7 1 -1 0 -7"/>
<path stroke="blue" d="M504 380l1 0 0 -5 1 -1 0 -3 1 -1 0 -2 1 -1 0 -1 1 -1 0 -1 1 0 0 -1 1 0 0 -2 1 0 0 -1 1 -1 0 -1 1 -1 0 -2 1 -1 0 -4 1 0 0 -5 1 -1 0 -6 1 -1 0 -7 1 -1 0 -7 1 -1 0 -10 1 -1 0 -9 1 -1 0 -10 1 0 0 -8 1 -1 0 -5 1 0 0 -3 1 -1"/>
<path stroke="blue" d="M526 272l0 -2 1 0 0 -1 1 0 1 -1 11 0 0 -1 1 0 0 -2 1 0 0 -2 1 0M543 267l0 -4M543 267l1 1M544 289l0 -21M544 289l1 4M545 342l0 -49M545 342l1 6M546 400l0 -52M546 400l1 5M547 426l0 -21M547 426l1 1M548 430l0 -3M548 430l2 0M550 431l0 -1"/>
<path stroke="blue" d="M550 431l52 0M602 432l0 -1M602 432l2 0M604 433l0 -1M604 433l1 0M605 434l0 -1M605 434l1 1M606 437l0 -2M606 437l1 1M607 440l0 -2M607 440l1 0M608 441l0 -1M608 441l3 0 0 -1 1 0 0 -1 1 -1 0 -2 1 0 0 -3 1 -1 0 -4 1 0 0 -5 1 0"/>
<path stroke="blue" d="M617 423l0 -5 1 -1 0 -6 1 0 0 -7 1 -1 0 -7 1 0 0 -8 1 0 0 -7 1 0 0 -6 1 0 0 -4 1 0 0 -3 1 0 0 -1 1 0 0 -1 1 0 0 -1 3 0M631 366l0 -1M631 366l1 0M632 368l0 -2M632 368l1 1M633 372l0 -3M633 372l1 0M634 378l0 -6M634 378l1 1"/>
<path stroke="blue" d="M635 389l0 -10M635 389l1 1M636 405l0 -15M636 405l1 1M637 419l0 -13M637 419l1 1M638 426l0 -6M638 426l1 0M639 428l0 -2M639 428l1 0M640 429l0 -1M640 429l1 0M641 430l0 -1M641 430l3 0M644 431l0 -1M644 431l15 0 0 -1 3 0M662 431l0 -1"/>
<path stroke="blue" d="M662 431l1 0M663 432l0 -1M663 432l1 0M664 433l0 -1M664 433l1 0 0 -1 1 0 0 -1 54 0M720 432l0 -1M720 432l2 0M722 433l0 -1M722 433l1 0M723 434l0 -1M723 434l1 0M724 436l0 -2M724 436l1 1M725 439l0 -2M725 439l1 0M726 441l0 -2"/>
<path stroke="blue" d="M726 441l3 0 0 -1 1 0 0 -1 1 0 0 -2 1 0 0 -3 1 0 0 -4 1 0 0 -5 1 0 0 -5 1 -1 0 -6 1 -1 0 -6 1 -1 0 -7 1 0 0 -8 1 0 0 -6 1 -1 0 -6 1 0 0 -5 1 0 0 -3 1 0 0 -2 1 0 0 -1 1 0 0 -1 3 0M749 366l0 -1M749 366l1 0M750 368l0 -2M750 368l1 1"/>
<path stroke="blue" d="M751 372l0 -3M751 372l1 0M752 379l0 -7M752 379l1 0M753 389l0 -10M753 389l1 2M754 405l0 -14M754 405l1 1M755 418l0 -12M755 418l1 1M756 425l0 -6M756 425l1 1M757 428l0 -2M757 428l1 0M758 429l0 -1M758 429l1 0M759 430l0 -1M759 430l3 0"/>
<path stroke="blue" d="M762 431l0 -1M762 431l15 0 0 -1 3 0M780 431l0 -1M780 431l1 0M781 432l0 -1M781 432l1 0M782 433l0 -1M782 433l1 0 0 -1 1 -1 54 0M838 432l0 -1M838 432l2 0M840 433l0 -1M840 433l1 0M841 434l0 -1M841 434l1 0M842 437l0 -3M842 437l1 0"/>
<path stroke="blue" d="M843 439l0 -2M843 439l1 0M844 441l0 -2M844 441l3 0 0 -1 1 0 0 -1 1 0 0 -2 1 -1 0 -2 1 -1 0 -3 1 -1 0 -4 1 -1 0 -5 1 -1 0 -5 1 -1 0 -7 1 0 0 -7 1 -1 0 -7 1 -1 0 -6 1 -1 0 -6 1 0 0 -4 1 -1 0 -3 1 0 0 -2 1 0 0 -2 1 0 0 -1"/>
<path stroke="blue" d="M864 363l1 0 0 -1 1 0 0 -2 1 0 0 -2 1 0 0 -2 1 -1 0 -3 1 -1 0 -5 1 0 0 -7 1 0 0 -7 1 -1 0 -6 1 -1 0 -9 1 -1 0 -10 1 -1 0 -10 1 -1 0 -8 1 -1 0 -5 1 -1 0 -4 1 0 0 -2 1 0 0 -1 1 -1 1 0 0 -1 11 0 0 -1 1 0 0 -1 1 -1 0 -1 1 0"/>
<path stroke="blue" d="M897 264l0 -1M897 264l1 1M898 280l0 -15M898 280l1 3M899 327l0 -44M899 327l1 5M900 387l0 -55M900 387l1 5M901 423l0 -31M901 423l1 2M902 429l0 -4M902 429l1 1 1 0M904 431l0 -1M904 431l52 0M956 432l0 -1M956 432l2 0M958 433l0 -1"/>
<path stroke="blue" d="M958 433l1 0M959 434l0 -1M959 434l1 0M960 436l0 -2M960 436l1 1M961 439l0 -2M961 439l1 0M962 441l0 -2M962 441l3 0 0 -1 1 0 0 -1 1 0 0 -2 1 0 0 -3 1 -1 0 -3 1 -1 0 -2"/>
<path stroke="#FFA500" d="M460 39l46 0"/>
<text stroke="none" fill="black" font-size="16" x="516" y="48">
outp_buffer
</text>
<path stroke="#FFA500" d="M50 613l1 0 0 -1 1 0M52 613l0 -1M52 613l227 0M279 614l0 -1M279 614l1 0 0 -1 1 0 0 -3 1 0 0 -11 1 -2 0 -33 1 -5 0 -50 1 -5 0 -36 1 -2 0 -10 1 -1 0 -4 1 0 0 -1 1 0 0 -1 19 0 0 -2 1 0 0 -3 1 0M310 460l0 -16M310 460l1 3"/>
<path stroke="#FFA500" d="M311 507l0 -44M311 507l1 6M312 578l0 -65M312 578l1 6M313 611l0 -27M313 611l1 0M314 612l0 -1M314 612l1 0M315 613l0 -1M315 613l83 0 1 1 0 -1 1 0 0 -1 1 0 0 -5 1 -1 0 -19 1 -3 0 -38 1 -5 0 -50 1 -4 0 -26 1 -1 0 -6 1 -1"/>
<path stroke="#FFA500" d="M407 453l0 -3 1 0 0 -1 20 0 0 -2 1 -1 0 -2M429 445l1 0M430 465l0 -20M430 465l1 4M431 523l0 -54M431 523l1 6M432 593l0 -64M432 593l1 4M433 611l0 -14M433 611l1 1M434 613l0 -1M434 613l88 0M522 614l0 -1M522 614l2 0 0 -2 1 0"/>
<path stroke="#FFA500" d="M525 613l0 -1M525 613l110 0M635 614l0 -1M635 614l1 0 0 -1 1 0 0 -4 1 0 0 -13 1 -3 0 -37 1 -4 0 -44 1 -5 0 -35 1 -2 0 -9 1 -1 0 -4 1 0 0 -1 1 0 0 -1 2 0 1 -1 2 0M650 450l0 -1M650 450l3 0 0 -1 11 0 0 -1 1 0 0 -4 1 0M666 456l0 -12"/>
<path stroke="#FFA500" d="M666 456l1 3M667 504l0 -45M667 504l1 5M668 573l0 -64M668 573l1 6M669 611l0 -32M669 611l1 0M670 613l0 -2M670 613l83 0M753 614l0 -1M753 614l1 0 0 -1 1 0 0 -3 1 -1 0 -12 1 -2 0 -36 1 -5 0 -50 1 -5 0 -33 1 -2 0 -9 1 0 0 -4"/>
<path stroke="#FFA500" d="M761 451l2 -2 19 0 0 -1 1 -1 0 -3 1 0M784 458l0 -14M784 458l1 3M785 508l0 -47M785 508l1 6M786 576l0 -62M786 576l1 7M787 611l0 -28M787 611l1 0M788 612l0 -1M788 612l1 0M789 613l0 -1M789 613l87 0 1 1 1 0 0 -2 1 0M879 613l0 -1"/>
<path stroke="#FFA500" d="M879 613l91 0"/>
<path stroke="green" d="M50 39l46 0"/>
<text stroke="none" fill="black" font-size="16" x="106" y="48">
outn_buffer+2
</text>
<path stroke="green" d="M50 431l1 0 0 -1 1 0M52 431l0 -1M52 431l24 0 0 -1 1 0M77 431l0 -1M77 431l208 0M285 432l0 -1M285 432l2 0 0 -1 117 0M404 432l0 -1M404 432l2 0 1 -1 109 0 1 1 0 -1 1 0 0 -1 1 0 0 -5 1 -1 0 -20 1 -4 0 -38 1 -5 0 -45 1 -4 0 -23"/>
<path stroke="green" d="M523 285l1 -2 0 -7 1 -1 0 -6 1 0 0 -1 1 0 0 -1 19 0 0 -2 1 0 0 -3M547 263l1 0M548 282l0 -19M548 282l1 4M549 339l0 -53M549 339l1 6M550 408l0 -63M550 408l1 5M551 429l0 -16M551 429l1 1M552 431l0 -1M552 431l89 0M641 432l0 -1"/>
<path stroke="green" d="M641 432l2 0 0 -1 2 0 0 -1 7 0M652 431l0 -1M652 431l107 0M759 432l0 -1M759 432l2 0 0 -1 110 0M871 432l0 -1M871 432l1 0 0 -1 1 0 0 -4 1 0 0 -13 1 -2 0 -37 1 -4 0 -47 1 -4 0 -31 1 -2 0 -9 1 -1 0 -7 1 0 0 -2 1 0 0 -1 19 0"/>
<path stroke="green" d="M900 267l0 -1 1 -1 0 -3 1 0M902 274l0 -12M902 274l1 3M903 322l0 -45M903 322l1 6M904 384l0 -56M904 384l1 7M905 428l0 -37M905 428l1 1M906 430l0 -1M906 430l1 1 63 0"/>
<path stroke="#FFC0C5" d="M460 55l46 0"/>
<text stroke="none" fill="black" font-size="16" x="516" y="64">
out_comp+4
</text>
<path stroke="#FFC0C5" d="M50 212l15 0 0 -1 2 0 0 -1 1 0 0 -1 1 0 0 -1 1 0 0 -2 1 0 0 -3 1 0 0 -4 1 0 0 -5 1 -1 0 -8 1 -1 0 -11 1 -1 0 -15 1 -2 0 -18 1 -2 0 -19 1 -2 0 -14 1 -1 0 -7 1 0 0 -3 1 -1 0 -1 1 0 0 -1 2 0 0 -1 438 0M523 86l0 -1M523 86l1 0"/>
<path stroke="#FFC0C5" d="M524 86l0 -1 1 0 0 -1 4 0M529 85l0 -1M529 85l1 0M530 88l0 -3M530 88l1 0M531 93l0 -5M531 93l1 0M532 100l0 -7M532 100l1 1M533 111l0 -10M533 111l1 2M534 127l0 -14M534 127l1 1M535 146l0 -18M535 146l1 2M536 165l0 -17M536 165l1 2"/>
<path stroke="#FFC0C5" d="M537 188l0 -21M537 188l1 2M538 210l0 -20M538 210l1 2M539 230l0 -18M539 230l1 2M540 243l0 -11M540 243l1 0M541 247l0 -4M541 247l1 0M542 248l0 -1M542 248l1 0 1 1 97 0M641 250l0 -1M641 250l3 0 0 -2 1 0 0 -6 1 -1 0 -12 1 -1"/>
<path stroke="#FFC0C5" d="M647 228l0 -22 1 -2 0 -24 1 -3 0 -30 1 -3 0 -27 1 -2 0 -17 1 -1 0 -7 1 0 0 -3 1 0 0 -1 1 0 0 -1 222 0 1 1 0 -1 1 0 1 -1 4 0M884 87l0 -3M884 87l1 0M885 91l0 -4M885 91l1 1M886 98l0 -6M886 98l1 1M887 108l0 -9M887 108l1 1"/>
<path stroke="#FFC0C5" d="M888 123l0 -14M888 123l1 1M889 139l0 -15M889 139l1 2M890 160l0 -19M890 160l1 2M891 182l0 -20M891 182l1 2M892 205l0 -21M892 205l1 2M893 226l0 -19M893 226l1 1M894 240l0 -13M894 240l1 1M895 246l0 -5M895 246l1 0M896 248l0 -2"/>
<path stroke="#FFC0C5" d="M896 248l2 0M898 249l0 -1M898 249l72 0"/>
</svg>
