<?xml version="1.0" standalone="yes"?>
<!DOCTYPE svg PUBLIC "-//W3C//DTD SVG 1.1//EN"
 "http://www.w3.org/Graphics/SVG/1.1/DTD/svg11.dtd">
<svg xmlns="http://www.w3.org/2000/svg" version="1.1"
  width="100%" height="100%" viewBox="0 0 1024 768"
  style="fill: none; font-family: Helvetica;
 font: Helvetica;
">

<!-- Creator: NGspice -->

<rect x="0" y="0" width="1024" height="768" fill="white" stroke="none"/>
<text stroke="none" fill="black" font-size="16" x="358" y="752">
time
</text>
<text stroke="none" fill="black" font-size="16" x="10" y="16">
tran1: Salidas Internas del Comparador
</text>
<path stroke="black" d="M70 704l0 -640"/>
<text stroke="none" fill="black" font-size="16" x="55" y="728">
0.0
</text>
<path stroke="black" stroke-dasharray="1,2" d="M158 704l0 -640"/>
<text stroke="none" fill="black" font-size="16" x="143" y="728">
1.0
</text>
<path stroke="black" stroke-dasharray="1,2" d="M246 704l0 -640"/>
<text stroke="none" fill="black" font-size="16" x="231" y="728">
2.0
</text>
<path stroke="black" stroke-dasharray="1,2" d="M334 704l0 -640"/>
<text stroke="none" fill="black" font-size="16" x="319" y="728">
3.0
</text>
<path stroke="black" stroke-dasharray="1,2" d="M422 704l0 -640"/>
<text stroke="none" fill="black" font-size="16" x="407" y="728">
4.0
</text>
<path stroke="black" stroke-dasharray="1,2" d="M510 704l0 -640"/>
<text stroke="none" fill="black" font-size="16" x="495" y="728">
5.0
</text>
<path stroke="black" stroke-dasharray="1,2" d="M598 704l0 -640"/>
<text stroke="none" fill="black" font-size="16" x="583" y="728">
6.0
</text>
<path stroke="black" stroke-dasharray="1,2" d="M686 704l0 -640"/>
<text stroke="none" fill="black" font-size="16" x="671" y="728">
7.0
</text>
<path stroke="black" stroke-dasharray="1,2" d="M774 704l0 -640"/>
<text stroke="none" fill="black" font-size="16" x="759" y="728">
8.0
</text>
<path stroke="black" stroke-dasharray="1,2" d="M862 704l0 -640"/>
<text stroke="none" fill="black" font-size="16" x="847" y="728">
9.0
</text>
<path stroke="black" stroke-dasharray="1,2" d="M950 704l0 -640"/>
<text stroke="none" fill="black" font-size="16" x="930" y="728">
10.0
</text>
<text stroke="none" fill="black" font-size="16" x="614" y="752">
ns
</text>
<path stroke="black" stroke-dasharray="1,2" d="M70 704l880 0"/>
<text stroke="none" fill="black" font-size="16" x="8" y="712">
-250.0
</text>
<path stroke="black" stroke-dasharray="1,2" d="M70 640l880 0"/>
<text stroke="none" fill="black" font-size="16" x="8" y="648">
-200.0
</text>
<path stroke="black" stroke-dasharray="1,2" d="M70 576l880 0"/>
<text stroke="none" fill="black" font-size="16" x="8" y="584">
-150.0
</text>
<path stroke="black" stroke-dasharray="1,2" d="M70 512l880 0"/>
<text stroke="none" fill="black" font-size="16" x="8" y="520">
-100.0
</text>
<path stroke="black" stroke-dasharray="1,2" d="M70 448l880 0"/>
<text stroke="none" fill="black" font-size="16" x="18" y="456">
-50.0
</text>
<path stroke="black" d="M70 384l880 0"/>
<text stroke="none" fill="black" font-size="16" x="38" y="392">
0.0
</text>
<path stroke="black" stroke-dasharray="1,2" d="M70 320l880 0"/>
<text stroke="none" fill="black" font-size="16" x="28" y="328">
50.0
</text>
<path stroke="black" stroke-dasharray="1,2" d="M70 256l880 0"/>
<text stroke="none" fill="black" font-size="16" x="18" y="264">
100.0
</text>
<path stroke="black" stroke-dasharray="1,2" d="M70 192l880 0"/>
<text stroke="none" fill="black" font-size="16" x="18" y="200">
150.0
</text>
<path stroke="black" stroke-dasharray="1,2" d="M70 128l880 0"/>
<text stroke="none" fill="black" font-size="16" x="18" y="136">
200.0
</text>
<path stroke="black" stroke-dasharray="1,2" d="M70 64l880 0"/>
<text stroke="none" fill="black" font-size="16" x="18" y="72">
250.0
</text>
<text stroke="none" fill="black" font-size="16" x="10" y="32">
     
</text>
<path stroke="red" d="M440 23l44 0"/>
<text stroke="none" fill="black" font-size="16" x="494" y="32">
outp_bindra
</text>
<path stroke="red" d="M70 384l198 0 0 -1 4 0 0 -1 25 0M297 383l0 -1M297 383l1 0M298 384l0 -1M298 384l61 0 0 -1 4 0 1 -1 25 0M389 383l0 -1M389 383l2 0M391 384l0 -1M391 384l233 0 1 -1 4 0 0 -1 26 0M655 383l0 -1M655 383l1 0M656 384l0 -1M656 384l57 0"/>
<path stroke="red" d="M713 384l0 -1 4 0 0 -1 26 0M743 383l0 -1M743 383l1 0M744 384l0 -1M744 384l206 0"/>
<path stroke="blue" d="M70 23l44 0"/>
<text stroke="none" fill="black" font-size="16" x="124" y="32">
outn_bindra
</text>
<path stroke="blue" d="M70 383l14 0M84 384l0 -1M84 384l364 0 0 -1 4 0 0 -1 26 0M478 383l0 -1M478 383l1 0M479 384l0 -1M479 384l57 0 0 -1 4 0 0 -1 26 0M566 383l0 -1M566 383l1 0M567 384l0 -1M567 384l234 0 0 -1 4 0 0 -1 26 0M831 383l0 -1M831 383l2 0"/>
<path stroke="blue" d="M833 384l0 -1M833 384l57 0 0 -1 4 0 0 -1 26 0M920 383l0 -1M920 383l1 0M921 384l0 -1M921 384l29 0"/>
<path stroke="#FFA500" d="M440 39l44 0"/>
<text stroke="none" fill="black" font-size="16" x="494" y="48">
outp_buffer+2
</text>
<path stroke="#FFA500" d="M70 381l205 0 0 -1 1 0 0 -1 25 0M301 380l0 -1M301 380l1 0M302 381l0 -1M302 381l65 0 0 -1 1 0 0 -1 25 0M393 380l0 -1M393 380l1 0M394 381l0 -1M394 381l238 0 0 -1 1 0 0 -1 25 0M658 380l0 -1M658 380l1 0M659 381l0 -1M659 381l61 0"/>
<path stroke="#FFA500" d="M720 381l0 -1 1 0 0 -1 25 0 2 2 202 0"/>
<path stroke="green" d="M70 39l44 0"/>
<text stroke="none" fill="black" font-size="16" x="124" y="48">
outn_buffer+2
</text>
<path stroke="green" d="M70 379l17 0M87 380l0 -1M87 380l1 0M88 381l0 -1M88 381l367 0 0 -1 1 0 0 -1 25 0M481 380l0 -1M481 380l1 0 1 1 60 0 0 -1 1 0 1 -1 25 0M570 380l0 -1M570 380l1 0M571 381l0 -1M571 381l237 0 1 -1 1 0 0 -1 25 0M835 380l0 -1M835 380l1 0"/>
<path stroke="green" d="M836 381l0 -1M836 381l61 0 0 -1 1 0 0 -1 25 0M923 380l0 -1M923 380l1 0M924 381l0 -1M924 381l26 0"/>
<path stroke="#FFC0C5" d="M440 55l44 0"/>
<text stroke="none" fill="black" font-size="16" x="494" y="64">
pulse+4
</text>
<path stroke="#FFC0C5" d="M70 379l11 0 0 -1 2 0 0 -1 177 0M260 378l0 -1M260 378l2 0M262 379l0 -1M262 379l32 0 0 -1 2 0 0 -1 55 0 1 1 2 0M354 379l0 -1M354 379l32 0 0 -1 2 0 0 -1 52 0M440 378l0 -1M440 378l2 0M442 379l0 -1M442 379l32 0 0 -1 2 0"/>
<path stroke="#FFC0C5" d="M476 378l1 -1 51 0M528 378l0 -1M528 378l2 0 1 1 32 0 0 -1 2 0 0 -1 52 0M617 378l0 -1M617 378l2 0M619 379l0 -1M619 379l32 0 0 -1 2 0 0 -1 52 0M705 378l0 -1M705 378l2 0M707 379l0 -1M707 379l32 0 0 -1 3 0 0 -1 51 0M793 378l0 -1"/>
<path stroke="#FFC0C5" d="M793 378l3 0M796 379l0 -1M796 379l32 0 0 -1 2 0 0 -1 52 0M882 378l0 -1M882 378l2 0M884 379l0 -1M884 379l32 0 0 -1 2 0 0 -1 32 0"/>
<path stroke="#A52A2A" d="M70 55l44 0"/>
<text stroke="none" fill="black" font-size="16" x="124" y="64">
vin_dif_mv+6
</text>
<path stroke="#A52A2A" d="M70 657l0 -561M70 657l176 0 0 -561 176 0M422 657l0 -561M422 657l176 0 0 -561 176 0M774 657l0 -561M774 657l176 0"/>
</svg>
