<?xml version="1.0" standalone="yes"?>
<!DOCTYPE svg PUBLIC "-//W3C//DTD SVG 1.1//EN"
 "http://www.w3.org/Graphics/SVG/1.1/DTD/svg11.dtd">
<svg xmlns="http://www.w3.org/2000/svg" version="1.1"
  width="100%" height="100%" viewBox="0 0 1024 768"
  style="fill: none; font-family: Helvetica;
 font: Helvetica;
">

<!-- Creator: NGspice -->

<rect x="0" y="0" width="1024" height="768" fill="white" stroke="none"/>
<text stroke="none" fill="black" font-size="16" x="358" y="752">
time
</text>
<text stroke="none" fill="black" font-size="16" x="10" y="16">
tran1: Salidas Comparador
</text>
<path stroke="black" d="M70 704l0 -640"/>
<text stroke="none" fill="black" font-size="16" x="55" y="728">
0.0
</text>
<path stroke="black" stroke-dasharray="1,2" d="M158 704l0 -640"/>
<text stroke="none" fill="black" font-size="16" x="143" y="728">
1.0
</text>
<path stroke="black" stroke-dasharray="1,2" d="M246 704l0 -640"/>
<text stroke="none" fill="black" font-size="16" x="231" y="728">
2.0
</text>
<path stroke="black" stroke-dasharray="1,2" d="M334 704l0 -640"/>
<text stroke="none" fill="black" font-size="16" x="319" y="728">
3.0
</text>
<path stroke="black" stroke-dasharray="1,2" d="M422 704l0 -640"/>
<text stroke="none" fill="black" font-size="16" x="407" y="728">
4.0
</text>
<path stroke="black" stroke-dasharray="1,2" d="M510 704l0 -640"/>
<text stroke="none" fill="black" font-size="16" x="495" y="728">
5.0
</text>
<path stroke="black" stroke-dasharray="1,2" d="M598 704l0 -640"/>
<text stroke="none" fill="black" font-size="16" x="583" y="728">
6.0
</text>
<path stroke="black" stroke-dasharray="1,2" d="M686 704l0 -640"/>
<text stroke="none" fill="black" font-size="16" x="671" y="728">
7.0
</text>
<path stroke="black" stroke-dasharray="1,2" d="M774 704l0 -640"/>
<text stroke="none" fill="black" font-size="16" x="759" y="728">
8.0
</text>
<path stroke="black" stroke-dasharray="1,2" d="M862 704l0 -640"/>
<text stroke="none" fill="black" font-size="16" x="847" y="728">
9.0
</text>
<path stroke="black" stroke-dasharray="1,2" d="M950 704l0 -640"/>
<text stroke="none" fill="black" font-size="16" x="930" y="728">
10.0
</text>
<text stroke="none" fill="black" font-size="16" x="614" y="752">
ns
</text>
<path stroke="black" stroke-dasharray="1,2" d="M70 704l880 0"/>
<text stroke="none" fill="black" font-size="16" x="8" y="712">
-250.0
</text>
<path stroke="black" stroke-dasharray="1,2" d="M70 640l880 0"/>
<text stroke="none" fill="black" font-size="16" x="8" y="648">
-200.0
</text>
<path stroke="black" stroke-dasharray="1,2" d="M70 576l880 0"/>
<text stroke="none" fill="black" font-size="16" x="8" y="584">
-150.0
</text>
<path stroke="black" stroke-dasharray="1,2" d="M70 512l880 0"/>
<text stroke="none" fill="black" font-size="16" x="8" y="520">
-100.0
</text>
<path stroke="black" stroke-dasharray="1,2" d="M70 448l880 0"/>
<text stroke="none" fill="black" font-size="16" x="18" y="456">
-50.0
</text>
<path stroke="black" d="M70 384l880 0"/>
<text stroke="none" fill="black" font-size="16" x="38" y="392">
0.0
</text>
<path stroke="black" stroke-dasharray="1,2" d="M70 320l880 0"/>
<text stroke="none" fill="black" font-size="16" x="28" y="328">
50.0
</text>
<path stroke="black" stroke-dasharray="1,2" d="M70 256l880 0"/>
<text stroke="none" fill="black" font-size="16" x="18" y="264">
100.0
</text>
<path stroke="black" stroke-dasharray="1,2" d="M70 192l880 0"/>
<text stroke="none" fill="black" font-size="16" x="18" y="200">
150.0
</text>
<path stroke="black" stroke-dasharray="1,2" d="M70 128l880 0"/>
<text stroke="none" fill="black" font-size="16" x="18" y="136">
200.0
</text>
<path stroke="black" stroke-dasharray="1,2" d="M70 64l880 0"/>
<text stroke="none" fill="black" font-size="16" x="18" y="72">
250.0
</text>
<text stroke="none" fill="black" font-size="16" x="10" y="32">
     
</text>
<path stroke="red" d="M440 23l44 0"/>
<text stroke="none" fill="black" font-size="16" x="494" y="32">
vin_dif_mv
</text>
<path stroke="red" d="M70 664l0 -560M70 664l176 0 0 -560 176 0M422 664l0 -560M422 664l176 0 0 -560 176 0M774 664l0 -560M774 664l176 0"/>
<path stroke="blue" d="M70 23l44 0"/>
<text stroke="none" fill="black" font-size="16" x="124" y="32">
out_comp
</text>
<path stroke="blue" d="M70 384l212 0 0 -1 2 0 0 -1 184 0M468 383l0 -1M468 383l3 0M471 384l0 -1M471 384l168 0 0 -1 2 0 0 -1 181 0M822 383l0 -1M822 383l3 0M825 384l0 -1M825 384l125 0"/>
<path stroke="#FFA500" d="M440 39l44 0"/>
<text stroke="none" fill="black" font-size="16" x="494" y="48">
pulse+4
</text>
<path stroke="#FFA500" d="M70 379l11 0 0 -1 2 0 0 -1 177 0M260 378l0 -1M260 378l2 0M262 379l0 -1M262 379l32 0 0 -1 2 0 0 -1 55 0 1 1 2 0M354 379l0 -1M354 379l32 0 0 -1 2 0 0 -1 52 0M440 378l0 -1M440 378l2 0M442 379l0 -1M442 379l32 0 0 -1 2 0"/>
<path stroke="#FFA500" d="M476 378l1 -1 51 0M528 378l0 -1M528 378l2 0 1 1 32 0 0 -1 2 0 0 -1 52 0M617 378l0 -1M617 378l2 0M619 379l0 -1M619 379l32 0 0 -1 2 0 0 -1 52 0M705 378l0 -1M705 378l2 0M707 379l0 -1M707 379l32 0 0 -1 3 0 0 -1 51 0M793 378l0 -1"/>
<path stroke="#FFA500" d="M793 378l3 0M796 379l0 -1M796 379l32 0 0 -1 2 0 0 -1 52 0M882 378l0 -1M882 378l2 0M884 379l0 -1M884 379l32 0 0 -1 2 0 0 -1 32 0"/>
<path stroke="green" d="M70 39l44 0"/>
<text stroke="none" fill="black" font-size="16" x="124" y="48">
enable+2
</text>
<path stroke="green" d="M70 380l0 -1M70 380l1 1 176 0 0 -1 1 0 0 -1 702 0"/>
</svg>
